<svg xmlns="http://www.w3.org/2000/svg" viewBox="0 0 450 626" width="450" height="626" role="img" aria-label="Nota musical negra con corchete">
  <path fill="#000000" d="
    M256 86
    C256 84 258 83 260 83
    L270 83
    C273 83 275 85 275 88
    L275 112
    C277 139 287 159 306 177
    C324 194 348 211 363 233
    C389 271 386 325 359 391
    C355 400 350 408 345 416
    C343 419 339 419 337 417
    C335 415 335 412 337 409
    C354 372 361 335 356 304
    C351 270 333 245 305 224
    C292 214 281 206 275 196
    L275 421
    C275 449 255 478 221 496
    C184 516 143 515 125 494
    C112 479 112 457 125 438
    C137 421 157 408 181 402
    C213 394 244 401 256 421
    Z"/>
</svg>
